<?xml version="1.0" encoding="utf-8"?>
<!-- Generator: Adobe Illustrator 24.1.1, SVG Export Plug-In . SVG Version: 6.00 Build 0)  -->
<svg version="1.1" id="Capa_1" xmlns="http://www.w3.org/2000/svg" xmlns:xlink="http://www.w3.org/1999/xlink" x="0px" y="0px"
	 viewBox="0 0 151.5 1505.6" style="enable-background:new 0 0 151.5 1505.6;" xml:space="preserve">
<style type="text/css">
	.st0{fill:#D21C2E;}
</style>
<g id="Capa_2_1_">
	<g id="Capa_1-2">
		<path class="st0" d="M3.7,174.1c50.8,7.2,100.4,20.8,147.8,40.5V0H3.7V174.1z"/>
		<path class="st0" d="M3.7,1378.9v126.7h147.8v-167.1C104.1,1358.2,54.5,1371.7,3.7,1378.9"/>
		<path class="st0" d="M3.7,238.6V335c31,6.2,61.3,15.7,90.3,28.2l27.3-98.9l0.1-0.4c0.2-0.9,0.3-1.8,0.1-2.7c-0.4-2.2-2-4-4.1-4.7
			c-0.2-0.1-0.3-0.1-0.5-0.1l0,0C80,246.1,42,240.1,3.7,238.6"/>
		<path class="st0" d="M147.8,1251v-92.5c-45.4,28-95.5,47.7-147.8,58.1v103.7C52.8,1305.6,102.8,1282.2,147.8,1251"/>
		<path class="st0" d="M3.7,409.1V497c9.6,3.1,19,6.7,28.3,10.8l23-83.4l0.1-0.3c0.2-0.6,0.2-1.3,0.1-1.9c-0.3-1.5-1.4-2.8-2.8-3.3
			c-0.1,0-0.2-0.1-0.4-0.1l0,0C36.1,414.5,20,411.2,3.7,409.1"/>
		<path class="st0" d="M70.1,472.2c-2.3-0.6-4.7,0.8-5.3,3.1l0,0l-13.1,42c39.2,20.9,73.2,50.1,99.8,85.7v-93.8
			C126.1,493.3,98.8,480.9,70.1,472.2L70.1,472.2z"/>
		<path class="st0" d="M78.5,1113.7c27.7-19.6,52.4-43.4,73-70.4v-57.4l-13-7.6C102.6,1020,56,1051,3.7,1068v85.6
			C30.2,1143.5,55.3,1130.1,78.5,1113.7"/>
		<path class="st0" d="M151.5,701.2c-12.7-28.1-31.2-53.2-54.1-73.8c-24.2-21.7-52.8-37.8-83.9-47.3l0,0c-1.5-0.4-3.1,0.5-3.5,2l0,0
			l-5.6,18.1c51,26.5,88.8,73,104.3,128.3l42.9-18.6v-8.7H151.5z"/>
		<path class="st0" d="M133.8,738.6L133.8,738.6c-0.6-1.4-2.3-2.1-3.7-1.5l0,0l-17.7,6.8c2.7,13.4,4,27,4,40.6
			c0.1,43.5-13.6,85.9-39.1,121.2l41.1,22l0.2,0.1c0.4,0.2,0.8,0.3,1.2,0.3c1,0,2-0.5,2.5-1.3c0-0.1,0.1-0.1,0.1-0.2l0,0
			c15.6-28.7,24.6-60.4,26.6-92.9C150.9,801.3,145.7,768.8,133.8,738.6"/>
		<path class="st0" d="M18.9,1002.6c26.5-18.7,48.7-43.1,64.8-71.3l0,0c0.7-1.4,0.2-3.1-1.2-3.9l-15.3-8.9
			C49.6,939.3,28,956.5,3.7,969v43.3C8.9,1009.3,14,1006.2,18.9,1002.6"/>
		<path class="st0" d="M67.9,736.5c0.3-0.1,0.5-0.3,0.7-0.5c0.4-0.5,0.6-1.2,0.3-1.8c0-0.1,0-0.1-0.1-0.2
			c-8.5-19.8-21.1-37.5-37.2-51.9c-8.5-7.6-17.9-14.2-28-19.7v26.3c16.8,16.7,29,37.4,35.4,60.3l28.7-12.4L67.9,736.5z"/>
		<path class="st0" d="M55.7,755.5L55.7,755.5c-0.3-0.6-0.9-1.1-1.6-1.1c-0.3,0-0.6,0-0.9,0.2l-11.7,4.5c1.8,8.8,2.6,17.8,2.6,26.8
			c0,28.7-9,56.7-25.8,80l27.1,14.5h0.1c0.2,0.1,0.5,0.2,0.8,0.2c0.7,0,1.3-0.3,1.7-0.9c0,0,0-0.1,0.1-0.1l0,0
			c10.3-18.9,16.3-39.9,17.6-61.3C67,796.9,63.6,775.5,55.7,755.5"/>
		<path class="st0" d="M11.7,874.3c-2.5,3-5.2,5.9-8,8.6v25.8c7.3-7.9,13.6-16.7,18.9-26l0,0c0.3-0.6,0.3-1.4-0.1-1.9
			c-0.2-0.3-0.4-0.5-0.7-0.6L11.7,874.3z"/>
	</g>
</g>
</svg>
