<?xml version="1.0" encoding="utf-8"?>
<!-- Generator: Adobe Illustrator 24.1.0, SVG Export Plug-In . SVG Version: 6.00 Build 0)  -->
<svg version="1.1" id="Capa_1" xmlns="http://www.w3.org/2000/svg" xmlns:xlink="http://www.w3.org/1999/xlink" x="0px" y="0px"
	 viewBox="0 0 310.1 250.1" style="enable-background:new 0 0 310.1 250.1;" xml:space="preserve">
<style type="text/css">
	.st0{fill:#D6D6D6;}
	.st1{fill:#AAAAAA;}
	.st2{fill:#838383;}
	.st3{fill:#BABABA;}
	.st4{fill:#E4E4E4;}
	.st5{fill:none;stroke:#B1BDDB;stroke-width:0.7064;stroke-miterlimit:10;}
	.st6{fill:#CFCFCF;}
	.st7{fill:#646464;}
	.st8{fill:#868686;}
	.st9{fill:#565656;}
	.st10{fill:#EEC2AC;}
	.st11{opacity:0.5;fill:#444E5C;enable-background:new    ;}
	.st12{fill:#9C9C9C;}
	.st13{fill:#DADADA;}
	.st14{fill:none;stroke:#282928;stroke-width:1.1847;stroke-linecap:round;stroke-linejoin:round;stroke-miterlimit:10;}
	.st15{fill:#282928;}
	.st16{fill:none;stroke:#282928;stroke-width:3.6615;stroke-linecap:round;stroke-linejoin:round;stroke-miterlimit:10;}
	.st17{fill:none;stroke:#292929;stroke-width:1.5;stroke-linecap:round;stroke-linejoin:round;stroke-miterlimit:10;}
	.st18{fill:none;stroke:#282928;stroke-width:2;stroke-linecap:round;stroke-linejoin:round;stroke-miterlimit:10;}
	.st19{fill:none;stroke:#292929;stroke-width:2;stroke-linejoin:round;stroke-miterlimit:10;}
	.st20{fill:none;stroke:#282928;stroke-width:0.7659;stroke-linecap:round;stroke-linejoin:round;stroke-miterlimit:10;}
	.st21{fill:none;stroke:#000000;stroke-width:0.9118;stroke-linecap:round;stroke-linejoin:round;stroke-miterlimit:10;}
	.st22{fill:none;stroke:#000000;stroke-width:0.9287;stroke-linecap:round;stroke-linejoin:round;stroke-miterlimit:10;}
	.st23{fill:none;stroke:#282928;stroke-width:0.9976;stroke-linecap:round;stroke-linejoin:round;stroke-miterlimit:10;}
	.st24{fill:#292929;}
	.st25{fill:none;stroke:#292929;stroke-width:1.4228;stroke-linecap:round;stroke-linejoin:round;stroke-miterlimit:10;}
	.st26{fill:none;stroke:#292929;stroke-width:1.0671;stroke-linecap:round;stroke-linejoin:round;stroke-miterlimit:10;}
	.st27{fill:none;stroke:#292929;stroke-linejoin:round;stroke-miterlimit:10;}
	.st28{fill:none;stroke:#292929;stroke-miterlimit:10;}
	.st29{fill:none;stroke:#292929;stroke-width:0.796;stroke-linecap:round;stroke-linejoin:round;stroke-miterlimit:10;}
	.st30{fill:#CCCCCC;}
	.st31{fill:none;stroke:#282928;stroke-width:1.1335;stroke-linecap:round;stroke-linejoin:round;stroke-miterlimit:10;}
	.st32{fill:none;stroke:#282928;stroke-width:1.2285;stroke-linecap:round;stroke-linejoin:round;stroke-miterlimit:10;}
</style>
<ellipse class="st0" cx="159.5" cy="138.5" rx="99.7" ry="102.2"/>
<path class="st1" d="M254.1,170.7l-1.1-27.2l-0.3-7.5l-0.3-7.8c-0.3-9.7-7.3-17.8-16.8-19.8L224,106l6.3-7.4l-16-7l1.2-22l0,0
	c12.3-2.8,20.6-7.5,20.4-12.7c-0.2-4.9-8.1-8.9-19.6-11.3l0,0c0.4-6.2,0.2-13-2.3-15.3c-3.6-3.3-11.5,1.3-19.6,1.6
	s-16.3-3.9-19.7-0.2c-2.3,2.5-2.1,9.3-1.2,15.4l0,0c-11.5,2.9-19.1,7.4-18.9,12.3c0.2,5.2,8.7,9.3,21.3,11.2l0,0l2.7,21.8l0,0
	l-15.4,8.1l6.8,6.9l-5.7,1.6c-6.2,0.4-12.5,0.5-11.9,16.6l-0.8,113.6c0,0,18.6,6,48.4-7.3C233.6,216.8,254.5,180.3,254.1,170.7z"/>
<path class="st2" d="M118.6,107.6l6.1,9L151,103l0.5,0.2l0.1-0.6l21.8,14.1c6.1,7.3,7.3,52.8,7.3,52.8l-10.4-3.1
	c0,0-0.4,4.6-0.4,4.9c-1.5,25.2-2,35.4,0.3,53.2c-12,6.9-25,15.8-52.3,15.5c-16.8-2.5-19.5-3.3-33.6-11.3c0.1-3.9,0.5-10.3,1-13.1
	c2.5-12.9,5.7-30.7,14.9-46c-7.7-17.6-6-50.8-6-50.8L118.6,107.6z"/>
<path class="st2" d="M214.5,165.2l3.4-2.1l-13.7-17.9l-1.2,0.9c-4.8-8-28.3-31.3-35.4-31.8c-11.7-0.8-21.1,0.1,0.4,36
	c0.4,0.7,7.1,8.8,10.9,13.3c0.2,0.2,0.3,0.4,0.5,0.6l-1.7,1.3l12.3,14.7l2.6-1.6c0.3,0.3,0.4,0.4,0.4,0.4l-24.8,40.5l-17.3-1.5
	c-4.6-0.4-9.3,0.7-13.3,3c-0.8,0.5-1.7,0.9-2.6,1.3c-4.4,2-5.2,13.1-4.1,15.2c0.8,1.9,2.2,0.8,2.2,0.8s7,0.9,16.8,0
	c0.1-0.1,15.6,3,21.8-0.7c12.4-7.2,48.9-49.2,50.4-52C223.5,182.8,219.4,174,214.5,165.2z"/>
<path class="st3" d="M137.4,68.3c0,0,1.2,9.1,2.1,13.7c0.9,4.6,1.8,7.1,2.5,8.5c1.6,3.1,11.2,12.7,11.2,12.7s-30,15.8-38.8,15.8
	s-5.7-17.7-5.7-17.7s9.6-7.6,11-11.4s2.2-14.9,2.2-14.9L137.4,68.3z"/>
<path class="st4" d="M112.3,97.4l6.1,9l26.3-13.6l0.5,0.2l0.1-0.6l21.8,14.1c8.2,9.8-3.6,53.4-3.6,54.6c-1.5,25.2-2,35.4,0.3,53.2
	c-12,6.9-25,15.8-52.3,15.5c-16.8-2.5-19.5-3.3-33.6-11.3c0.1-3.9,0.5-10.3,1-13.1c2.5-12.9,5.7-30.7,14.9-46
	c-7.7-17.6-6-50.8-6-50.8L112.3,97.4z"/>
<path class="st5" d="M110.4,224.2"/>
<path class="st5" d="M118.4,107.3"/>
<polygon class="st6" points="110.2,113.8 111.4,98.2 115.1,94.3 118.3,106.4 142.1,88.9 145.3,93.6 132,117 118.4,107.3 "/>
<path class="st7" d="M126.6,112.9c-0.7,2.5-5,7.2-5,7.2c-1.6,9.3,1.4,88.4,2.4,98.1l-12.5,15.2c0,0-8.7-15.1-8.8-15.7
	c2.8-24.5,10.5-90.9,11.4-97.4c0,0-2.6-5.5-2.1-8.1c0.4-2.7,4.7-6.5,7.4-7.2C120.6,105.6,127,110,126.6,112.9z"/>
<path class="st3" d="M99.8,33.1C86.7,43,92.3,58.6,94,62.8s-0.8,5.8,2.4,15.9c1.6,5.1,6.2,14.6,10.6,19c3,3.2,15.3,0,18.1-1.5
	c5.1-2.7,17.1-18.1,13.2-28.5c0,0,3.5,0.2,4.5-10.7c0.3-2.8-2.5-17.9-4.5-20.4c-5-6.2-9.3-10.8-23.7-9.2
	C110.1,27.8,104.6,29.5,99.8,33.1z"/>
<path class="st8" d="M126.7,41.6c-0.2,10.3-1.3,16.1-0.5,18.2c0.8,2,5.3,3.2,5.3,3.2s0.5-10.8,3.1-11.5c5.2-1.4,7.1,10.3,5.2,12.9
	c-2,2.6-3.4,3.4-3.4,3.4l1.6,10.5c0,0,4.6-11.4,4.7-21.6c0-4.8-2.8-17.8-4.5-20.4c-6.7-10.2-17.1-11-25.9-9
	C99,30.3,93.6,40,93.8,39.9c3.6-0.9,3.6,0.4,9.2-0.1c4.8-0.8,12-5.8,16.4-5.5C124.7,34.8,126.8,39.1,126.7,41.6z"/>
<path class="st8" d="M107.8,63.2l4.6-3.2l10.9-4.4l-3.2-1.9c-0.6-0.4-2.8-0.6-5.3,0.3l-5.9,3.6c-0.6,0.2-2.2,2.4-1.9,3L107.8,63.2z"
	/>
<path class="st9" d="M113.8,65.5l3.5-1.5l5.8-0.2l-1.6-2c-0.2-0.2-0.4-0.4-0.9-0.6c-1-0.4-2-0.4-3.1-0.1c0,0-4.3,1.2-4.1,2.5
	L113.8,65.5z"/>
<path class="st9" d="M106.5,85.1l9.3-1.6l-1.6-2c-0.2-0.2-0.4-0.4-0.9-0.6c-1-0.4-2-0.4-3.1-0.1c0,0-4.3,1.2-4.1,2.5L106.5,85.1z"/>
<path class="st9" d="M104.2,67.6l-2.8-0.1l-3.9,1.8l0.5-2.4c0-0.5,0.7-1.5,1.7-1.9l2.8-0.2c0.2,0.1,1.3,0.6,1.3,1L104.2,67.6z"/>
<path class="st8" d="M102,62.9l-3-0.4l-6.1,1.4l1-2.3c0.1-0.5,1.1-1.5,2.4-1.8l3.6,0.2c0.3,0,1.7,0.7,1.7,1.1L102,62.9z"/>
<path class="st8" d="M97.6,82c0,0,4,10.2,6.3,8.7c0.8-0.6,1.1-1.7,2.4-2.2c2.4-0.9,4.4-1.3,6-0.2c2.3,1.7,10-2.1,10-2.1
	s4.7-4.4,4.5-10.2c0-1.6,2.3-5,2.3-5s6.2,5.6,5.8,13.8c0,0-0.5,3.5-6.4,8.5c-7.4,6.2-11,7.2-15.4,6.5c-4.3-0.6-5.2-0.4-9.2-3.1
	C100.5,94.7,97.6,82,97.6,82z"/>
<path class="st8" d="M99,85.6l8.2-2.9l15.1-2l-3.4-3.3c-0.6-0.5-3.3-1.6-6.7-1.2l-8.5,2.6c-0.7,0.3-4.9,2.7-4.9,3.4L99,85.6z"/>
<g>
	<path class="st3" d="M95.4,226.9c0,0-0.8,5.7-2.2,5.7c-1.4,0-1.9-1.6-2.2-1.3c0.2-0.1-0.3,2.5-0.8,2.7c-1.2,0.7-2.4,0.4-3.6-2.2
		c-0.1-0.1-3.5-5.6-8.7-7.6c-8.1-3.5-12.5-12.2-12.5-12.2s-16.5-31.5-17.1-33.6c-1.6-6.3,12.8-28.3,19.8-35.9
		c0,0,11.9,20.8,13.7,22.3c-0.8,3.6-15.1,16-15.1,16L77.5,209c0,0,12.2,1,16.2,7.2c2.6,2.3,3.9,7.5,3.2,9.8
		C96.3,228.1,95.4,226.9,95.4,226.9z"/>
	<path class="st10" d="M65.4,164.9c0.1-0.2,0.1-0.4,0.2-0.6C65.8,164.9,65.7,165,65.4,164.9z"/>
</g>
<path class="st4" d="M90.5,153.2c-4.8,7.8-8.7,11.6-8.7,11.6S64.2,148.7,67,144.2c2.7-4.5,20.8-34.9,20.8-34.9L90.5,153.2z"/>
<polygon class="st6" points="59.3,152.5 76.9,173.8 84.6,162.9 67.5,141.1 "/>
<path class="st9" d="M31,220.5c-2.7-1.5-2.4-5.6,0-5.6l43.6-1.8c2.2,0,6.9-0.2,11.9,1.6l67.4,18.7l0.9,0.6c0.5,2.2-5.5,7-7.4,7
	l-52,8.6C93.4,249.6,30.9,220.3,31,220.5z"/>
<path class="st6" d="M33,214.5c-2.7-1.5-2.4-5.6,0-5.6l43.6-1.8c2.2,0,6.9-0.2,11.9,1.6l65.4,24.7c0,0,1,1-0.9,1l-55.6,9.2
	C95.4,243.6,32.9,214.3,33,214.5z"/>
<g>
	<polygon class="st11" points="127.9,231.2 136,234.3 143.7,233 135.7,230.1 	"/>
	<polygon class="st8" points="117.6,232.6 126.1,236 134,234.7 126,231.4 	"/>
	<polygon class="st8" points="106.5,234.1 116.1,237.7 124,236.3 115.1,232.9 	"/>
	<polygon class="st8" points="97.1,235.4 106.4,239.3 114.2,237.9 104.4,234.3 	"/>
</g>
<polygon class="st8" points="117.6,227.2 125.7,230.4 133.4,229.1 125.4,226.1 "/>
<polygon class="st8" points="107.3,228.6 115.8,232 123.8,230.7 115.7,227.5 "/>
<polygon class="st8" points="101.7,229.4 101.6,232.1 105.9,233.7 113.8,232.3 104.9,228.9 "/>
<polygon class="st11" points="102.2,234.3 104,234 102.2,233.3 "/>
<polygon class="st8" points="107.2,223.3 115.2,226.5 123,225.2 114.9,222.3 "/>
<polygon class="st8" points="101.7,224.1 101.6,226.7 105.3,228.2 113.3,226.8 105.3,223.6 "/>
<polygon class="st8" points="102,228.7 103.3,228.5 102.1,228 "/>
<polygon class="st8" points="97.5,219.8 105.6,223 113.3,221.7 105.3,218.8 "/>
<polygon class="st8" points="101.9,223.6 103.7,223.3 102,222.7 "/>
<polygon class="st8" points="101.7,218.8 104,218.5 101.7,217.6 "/>
<g>
	<path class="st9" d="M5.9,151c0,0,4.5-4.7,9-4.2l76.5,17.6c2.8,0.9,4.7,3.2,4.9,6.1l6.1,72.5c0.4,4.9-4.4,8.4-8.9,6.6L11,223.7
		L5.9,151z"/>
	<path class="st1" d="M9.9,221.8l-5.5-67.4c-0.2-2.7,2.4-4.7,5.1-3.9L88,167.7c1.5,0.4,2.7,1.7,2.8,3.3l6.3,74.4
		c0.2,2.7-2.4,4.7-5.1,3.9L12.7,225C11.1,224.6,10,223.3,9.9,221.8z"/>
</g>
<path class="st12" d="M309.7,125L309.7,125l-7.6-14.8c0.1-0.1,0.1-0.1,0.2-0.1c0.6-0.6,1-1.3,1.1-2.2h1.4c0.3,0,0.5-0.1,0.6-0.4
	s0.1-0.5,0-0.7l-2-3.2c-0.1-0.3-0.5-0.4-0.8-0.3s-0.5,0.4-0.5,0.7v3.2c0,0.8-0.2,1.4-0.6,1.8l-1.3-2.6c-0.4-0.6-1.1-0.9-1.7-0.6
	l-1.8,1v-5.1c0-0.4-0.3-0.7-0.7-0.7s-0.7,0.3-0.7,0.7v5.1c0,0.2,0.1,0.4,0.3,0.6l-16.4,8.5c-0.6,0.4-0.9,1.1-0.6,1.7l9.5,18.6
	c0.9,1.8,3.2,2.6,5.1,1.6l15.1-7.8C309.9,129.1,310.6,126.8,309.7,125z M291.8,121.9c-1.6-0.1-3.2-0.7-4.1-2.3
	c-1.2-2.3-0.2-4.8,1.8-6c2.3-1.2,5.1-0.2,6,1.8c0.9,1.6,0.6,3.2-0.4,4.8c3.3-1.5,7-0.4,8.9,2.8l-14.9,8
	C287.6,127.5,288.6,123.8,291.8,121.9z"/>
<ellipse transform="matrix(0.2238 -0.9746 0.9746 0.2238 180.6728 263.8651)" class="st0" cx="256" cy="18.5" rx="15.3" ry="15.3"/>
<g>
	<path class="st13" d="M302.1,75.3h-31.7c-0.7,0-1.2-0.5-1.2-1.2V42.6c0-0.7,0.5-1.2,1.2-1.2h31.7c0.7,0,1.2,0.5,1.2,1.2v31.7
		C303.3,74.9,302.7,75.3,302.1,75.3z"/>
</g>
<path class="st6" d="M41.5,88.8l12.1,9.7c0.7,0.6,1.1,1.4,1.1,2.3V118c0,1.7-1.3,3-3,3H27.2c-1.7,0-3-1.3-3-3v-17.2
	c0-0.9,0.4-1.8,1.1-2.3l12.1-9.7C38.6,87.8,40.3,87.8,41.5,88.8z"/>
<line class="st14" x1="37.7" y1="107.1" x2="51.1" y2="96.3"/>
<line class="st14" x1="21.1" y1="96.3" x2="34.5" y2="107.1"/>
<path class="st14" d="M38.1,108.3c0,1.1-0.9,2-2,2s-2-0.9-2-2s0.9-2,2-2C37.2,106.3,38.1,107.2,38.1,108.3z"/>
<path class="st14" d="M38.2,85.4l12.1,9.7c0.7,0.6,1.1,1.4,1.1,2.3v17.2c0,1.7-1.3,3-3,3H23.8c-1.7,0-3-1.3-3-3V97.5
	c0-0.9,0.4-1.8,1.1-2.3L34,85.5C35.2,84.5,36.9,84.5,38.2,85.4z"/>
<line class="st14" x1="43.4" y1="80.4" x2="43.4" y2="86.6"/>
<path class="st14" d="M39.3,93.6c0,0-2.9,0.6-2.9-2.2"/>
<path class="st15" d="M40.2,93.6c0,0.8-0.3,1.5-0.6,1.5S39,94.4,39,93.6s0.3-1.5,0.6-1.5S40.2,92.8,40.2,93.6z"/>
<polygon class="st14" points="35,91.4 36.4,89.1 36.4,91.4 "/>
<line class="st14" x1="26.4" y1="97" x2="31.1" y2="100.8"/>
<line class="st14" x1="40.6" y1="101.3" x2="42.3" y2="100"/>
<line class="st14" x1="24.1" y1="115" x2="32" y2="115"/>
<path class="st14" d="M45.7,78.1c0,1.3-1,2.3-2.3,2.3s-2.3-1-2.3-2.3s1-2.3,2.3-2.3S45.7,76.8,45.7,78.1z"/>
<path class="st16" d="M205.7,137.5"/>
<g>
	<polyline class="st17" points="219.1,129 243.9,142.4 235,158.9 	"/>
	<polyline class="st17" points="223.8,127.5 248.6,140.8 238.9,159 	"/>
	<g>
		<line class="st17" x1="216.4" y1="140.1" x2="230.2" y2="147.4"/>
		<line class="st17" x1="214.4" y1="143.7" x2="228.1" y2="151.1"/>
		<line class="st17" x1="212.5" y1="147.4" x2="226.2" y2="154.8"/>
		<line class="st17" x1="210.4" y1="151.1" x2="224.2" y2="158.5"/>
		<line class="st17" x1="208.5" y1="154.8" x2="219" y2="160.4"/>
		<line class="st17" x1="208" y1="159.4" x2="215.5" y2="163.3"/>
	</g>
</g>
<g>
	<path class="st18" d="M223.7,38.2c11.7,2.1,19.5,6,19.7,11c0.3,7.5-17.8,14.3-40.2,15.2c-22.5,0.8-40.9-4.8-41.2-12.3
		c-0.2-5,7.4-9.6,18.9-12.3"/>
	<path class="st18" d="M182.1,46.2c-1.4-6.6-3.1-18.6,0.1-22c3.4-3.5,11.6,0.5,19.7,0.2c8.1-0.3,16-5,19.6-1.6
		c3.4,3.2,2.5,15.2,1.6,22c-0.4,2.8-2.4,5-5.2,5.6l-5.1,1c-6.6,1.3-13.2,1.5-19.8,0.7l-5.2-0.6C184.8,51.1,182.6,49,182.1,46.2z"/>
	<path class="st18" d="M222.7,61.8l-1.2,22c-0.5,9.2-8,16.5-17.2,16.8l0,0c-9.2,0.3-17.2-6.4-18.3-15.6l-2.7-21.8"/>
	<path class="st18" d="M213.3,111c-2.4,1.4-5.3,2.4-8.4,2.5l0,0c-3,0.1-5.9-0.6-8.5-1.9"/>
	<polyline class="st18" points="221.6,83.7 237.6,90.7 222.5,108.3 233.5,115 227.9,128.7 	"/>
	<polyline class="st18" points="177.6,116.2 187,109.5 170.7,93.1 186.1,85 	"/>
	<line class="st18" x1="208.3" y1="141.1" x2="215.7" y2="96"/>
	<polyline class="st18" points="221.8,218.8 213.5,184 212,177.8 210.4,171.1 192.7,96.8 	"/>
	<path class="st18" d="M242.9,181.4l5.2-0.2c7.6-0.3,13.7-6.1,13.4-14.7l-1.6-46.4c-0.3-9.7-7.3-17.8-16.8-19.8L231.3,98"/>
	<path class="st18" d="M164,104.5l13.4-4.5"/>
	<polyline class="st19" points="205.1,147.7 214.3,130.6 239.1,143.9 230.7,159.8 	"/>
	<path class="st18" d="M213,171.6L213,171.6c-0.2-6.5,4.9-11.9,11.3-12.1l12.7-0.4c6.5-0.2,11.9,4.9,12.1,11.3l0,0
		c0.2,6.5-4.9,11.9-11.3,12.1l-12.8,0.4C218.6,183.1,213.2,178.1,213,171.6z"/>
	<path class="st18" d="M240.8,135.6l1.5-7.4"/>
</g>
<circle class="st20" cx="253.2" cy="15.7" r="15.3"/>
<g transform="translate(0,-952.36218)">
	<path class="st21" d="M261,972.5c0,2.2-1.8,3.9-3.9,3.9c-1.4,0-2.6-0.7-3.3-1.9l-0.3-0.7h-1.9l-1,0.8l-1-0.8l-1,0.8l-1-0.8l-1,0.8
		l-2.2-2.1l2-1.8l7.3-0.1c0.7-1.1,1.6-2.2,3.5-2.2C259.3,968.6,261,970.3,261,972.5z M259.7,972.5c0,0.7-0.6,1.4-1.4,1.4
		c-0.7,0-1.4-0.6-1.4-1.4s0.6-1.4,1.4-1.4C259,971.1,259.7,971.7,259.7,972.5z"/>
</g>
<g transform="translate(0,-952.36218)">
	<path class="st22" d="M247.8,959.9c2,0,3.4,1.2,3.8,2.8c0,0,8.8-0.1,8.9,0v2h-1.2v1.2h-1.4v-1.2h-1.4v1.2h-1.4v-1.2h-3.6
		c-0.3,2.4-2.4,3.2-3.8,3.2c-2.2,0-4-1.8-4-4S245.5,959.9,247.8,959.9z M246.6,962.5c0.7,0,1.4,0.6,1.4,1.4c0,0.7-0.6,1.4-1.4,1.4
		c-0.7,0-1.4-0.6-1.4-1.4C245.2,963.1,245.8,962.5,246.6,962.5z"/>
</g>
<line class="st23" x1="291.6" y1="103.8" x2="291.6" y2="98.7"/>
<path class="st23" d="M298.5,104.1c0,3.8-4.1,3.1-4.1,3.1"/>
<path class="st24" d="M294.1,105.6c0.4,0,0.8,0.8,0.6,1.6c0,0.9-0.3,1.6-0.6,1.6c-0.4,0-0.6-0.8-0.6-1.6S293.7,105.6,294.1,105.6z"
	/>
<polygon class="st25" points="298.5,104.1 298.5,100.9 300.5,104.1 "/>
<path class="st23" d="M299.9,120.6c-1.8-3.3-6-5-9.2-3.5l0,0c1-1.6,1.4-3.2,0.4-4.8c-0.9-1.9-3.8-3-6-1.8c-2,1.2-3,3.8-1.8,6
	c0.9,1.6,2.5,2.3,4.1,2.3l0,0c-3.3,1.8-4.3,5.7-2.8,8.9"/>
<g>
	<line class="st26" x1="303.1" y1="124.1" x2="299.6" y2="124"/>
	<line class="st26" x1="300.6" y1="122.5" x2="302.2" y2="125.6"/>
	<line class="st26" x1="300.4" y1="125.5" x2="302.3" y2="122.6"/>
</g>
<g>
	<line class="st26" x1="298.5" y1="126.5" x2="295" y2="126.4"/>
	<line class="st26" x1="296" y1="124.9" x2="297.5" y2="128"/>
	<line class="st26" x1="295.8" y1="127.9" x2="297.7" y2="125"/>
</g>
<g>
	<line class="st26" x1="293.9" y1="128.8" x2="290.4" y2="128.7"/>
	<line class="st26" x1="291.3" y1="127.2" x2="292.9" y2="130.3"/>
	<line class="st26" x1="291.2" y1="130.2" x2="293" y2="127.3"/>
</g>
<g>
	<line class="st26" x1="289.3" y1="131.2" x2="285.8" y2="131.2"/>
	<line class="st26" x1="286.7" y1="129.6" x2="288.3" y2="132.7"/>
	<line class="st26" x1="286.6" y1="132.7" x2="288.5" y2="129.7"/>
</g>
<path class="st23" d="M283.4,133.2l-9.5-18.6c-0.4-0.6-0.1-1.4,0.6-1.7l19.5-10c0.6-0.4,1.4-0.1,1.7,0.6l9.5,18.6"/>
<path class="st23" d="M288.6,134.9l15.1-7.8c1.8-0.9,2.6-3.2,1.6-5.1l0,0c-0.9-1.8-3.2-2.6-5.1-1.6l-15.2,7.8
	c-1.8,0.9-2.6,3.2-1.6,5.1l0,0C284.4,135.1,286.7,135.9,288.6,134.9z"/>
<g>
	<path class="st24" d="M297.3,71h-32.7c-0.7,0-1.2-0.5-1.2-1.2V37c0-0.7,0.5-1.2,1.2-1.2h32.7c0.7,0,1.2,0.5,1.2,1.2v32.7
		C298.5,70.5,297.9,71,297.3,71z M265.8,68.6h30.3V38.2h-30.3V68.6z"/>
</g>
<g>
	<path class="st24" d="M269.4,61c-0.1,0-0.2,0-0.4-0.1c-0.2-0.2-0.4-0.6-0.1-0.8l9.1-13.9c0.1-0.2,0.5-0.4,0.7-0.2
		c0.4,0.1,0.5,0.4,0.4,0.7l-2.5,9.6l5.6-4.1c0.2-0.1,0.5-0.1,0.7,0s0.2,0.5,0.2,0.7l-1.3,3.1l5.8-3.1c0.2-0.1,0.5-0.1,0.7,0.1
		c0.2,0.2,0.2,0.5,0.1,0.7l-1.3,2.6l5.2-2c0.4-0.1,0.6,0,0.8,0.4c0.1,0.4,0,0.6-0.4,0.8l-6.7,2.6c-0.2,0.1-0.5,0-0.7-0.1
		s-0.2-0.5-0.1-0.7l1.2-2.4l-5.6,3c-0.2,0.1-0.5,0.1-0.7-0.1c-0.2-0.1-0.2-0.5-0.1-0.7l1.1-2.6l-5.3,3.8c-0.2,0.1-0.5,0.1-0.7,0
		s-0.4-0.4-0.2-0.6l2-7.7l-7.2,10.9C269.7,60.9,269.6,61,269.4,61z"/>
</g>
<rect x="4.5" y="54.6" class="st4" width="27.3" height="27.3"/>
<rect x="0.5" y="50.6" class="st27" width="27.3" height="27.3"/>
<path class="st28" d="M20.7,74.3H7.6c-0.8,0-1.4-0.6-1.4-1.4V64c0-0.8,0.6-1.4,1.4-1.4h13.1c0.8,0,1.4,0.6,1.4,1.4v8.9
	C22.1,73.7,21.5,74.3,20.7,74.3z"/>
<path class="st28" d="M8.8,62.7v-2.9c0-3,2.4-5.4,5.4-5.4l0,0c3,0,5.4,2.4,5.4,5.4v2.9"/>
<g>
	<circle class="st29" cx="14.1" cy="67.4" r="1.5"/>
	<line class="st29" x1="14.1" y1="71.1" x2="14.1" y2="68.9"/>
</g>
<path class="st30" d="M70.6,33.5V25l-3.1-3H47.2v11.5l-3.3,2.7c-0.5,0.4-0.8,1-0.8,1.7v18c0,1.9,1.6,3.5,3.5,3.5h24.7
	c1.9,0,3.5-1.6,3.5-3.5v-18c0-0.7-0.3-1.3-0.8-1.7L70.6,33.5z"/>
<path class="st31" d="M56.3,35.8h-0.7c-2,0-3.6-1.6-3.6-3.6v-3.9c0-0.5,0.4-0.9,0.9-0.9H59c0.5,0,0.9,0.4,0.9,0.9v3.9
	C59.8,34.2,58.2,35.8,56.3,35.8z"/>
<line class="st31" x1="55.9" y1="27.4" x2="55.9" y2="35.6"/>
<line class="st31" x1="59.8" y1="30.8" x2="64" y2="30.8"/>
<line class="st31" x1="47.8" y1="30.8" x2="52" y2="30.8"/>
<path class="st31" d="M49.4,26.1c0,2.9,0,2.9,2.7,2.9"/>
<path class="st31" d="M49.4,35.3c0-2.9,0-2.9,2.7-2.9"/>
<path class="st31" d="M62.7,26.1c0,2.9,0,2.9-2.7,2.9"/>
<path class="st31" d="M62.7,35.3c0-2.9,0-2.9-2.7-2.9"/>
<path class="st31" d="M52.5,27.4c0-1.8,1.5-3.2,3.4-3.2s3.4,1.4,3.4,3.2"/>
<line class="st32" x1="57.6" y1="45.3" x2="71.5" y2="34"/>
<line class="st32" x1="40.3" y1="34" x2="54.2" y2="45.3"/>
<path class="st32" d="M58,46.6c0,1.2-1,2.1-2.1,2.1c-1.2,0-2.1-1-2.1-2.1c0-1.2,1-2.1,2.1-2.1C57.1,44.5,58,45.4,58,46.6z"/>
<path class="st32" d="M67.6,30.5l3.2,2.6c0.6,0.5,0.9,1.2,0.9,1.9v18.2c0,1.7-1.4,3.1-3.1,3.1H43.2c-1.7,0-3.1-1.4-3.1-3.1V35
	c0-0.8,0.3-1.5,0.9-1.9l3.2-2.6"/>
<line class="st32" x1="43.5" y1="53.3" x2="51.5" y2="53.3"/>
<line class="st32" x1="43.5" y1="50.6" x2="47.7" y2="50.6"/>
<polyline class="st32" points="44.2,37.1 44.2,19 64.5,19 67.6,22 67.6,37.2 "/>
<path class="st23" d="M293.3,96.6c0,1-0.8,1.7-1.7,1.7c-1,0-1.7-0.8-1.7-1.7c0-1,0.8-1.7,1.7-1.7S293.3,95.7,293.3,96.6z"/>
<g>
	<path class="st3" d="M127.2,231.2c-1.1-2.1-0.3-13.2,4.1-15.2c0.9-0.4,1.8-0.8,2.6-1.3c4-2.3,8.7-3.4,13.3-3l17.3,1.5l22.5-35.1
		c0,0-14.1-14.3-15.5-17.5c3.1-1.3,24.7-16.4,24.7-16.4c5.4,7.9,22.6,35,19.9,40.5c-1.5,2.8-35.7,39.4-48.1,46.6
		c-6.2,3.7-21.7,0.8-21.8,0.9c-0.7,6.1-6.1,6.6-8.1,6c-0.7-0.2-1.6-2.4-1.3-2.4c-0.5-0.2-1.3,1.2-3.7,1.2s-3.7-5-3.7-5
		S128,233.1,127.2,231.2z"/>
	<path class="st10" d="M177.6,170.7c0.1,0.2,0.2,0.3,0.3,0.5C177.4,171.4,177.3,171.3,177.6,170.7z"/>
</g>
<path class="st4" d="M167.1,107.2c8.3,0.6,31.1,39.9,31.1,39.9c1,2.9-20,21.1-22.7,18.7c0,0-12.9-15.5-13.5-16.5
	C140.5,113.4,155.4,106.4,167.1,107.2z"/>
<polygon class="st6" points="183.9,179.3 211.9,162.1 198.2,144.2 171.6,164.6 "/>
</svg>
