<?xml version="1.0" encoding="utf-8"?>
<!-- Generator: Adobe Illustrator 23.0.2, SVG Export Plug-In . SVG Version: 6.00 Build 0)  -->
<svg version="1.1" id="Capa_1" xmlns="http://www.w3.org/2000/svg" xmlns:xlink="http://www.w3.org/1999/xlink" x="0px" y="0px"
	 viewBox="0 0 109.1 109.1" style="enable-background:new 0 0 109.1 109.1;" xml:space="preserve">
<style type="text/css">
	.st0{opacity:0.3;fill:#81BCBF;}
	.st1{fill:none;stroke:#282928;stroke-width:2.2919;stroke-linecap:round;stroke-linejoin:round;stroke-miterlimit:10;}
	.st2{fill:none;stroke:#282928;stroke-width:2.4841;stroke-linecap:round;stroke-linejoin:round;stroke-miterlimit:10;}
	.st3{fill:#282928;}
	.st4{opacity:0.25;fill:#81BCBF;enable-background:new    ;}
	.st5{fill:none;stroke:#000000;stroke-width:2.3424;stroke-linecap:round;stroke-linejoin:round;stroke-miterlimit:10;}
	.st6{opacity:0.25;enable-background:new    ;}
	.st7{fill:#81BCBF;}
	.st8{opacity:0.3;}
	.st9{fill:none;stroke:#81BCBF;stroke-width:4;stroke-linecap:round;stroke-linejoin:round;stroke-miterlimit:10;}
	.st10{fill:none;stroke:#282928;stroke-width:1.6956;stroke-linecap:round;stroke-linejoin:round;stroke-miterlimit:10;}
	.st11{fill:#282928;stroke:#282928;stroke-width:1.7064;stroke-miterlimit:10;}
</style>
<g>
	<path class="st0" d="M81.2,43.1V25.9L75,19.8H33.9v23.3l-6.7,5.4c-1,0.8-1.6,2.1-1.6,3.4v36.4c0,3.9,3.1,7,7,7h50c3.9,0,7-3.1,7-7
		V51.9c0-1.3-0.6-2.6-1.6-3.4L81.2,43.1z"/>
	<g>
		<path class="st1" d="M52.3,47.8h-1.4c-4,0-7.2-3.2-7.2-7.2v-7.9c0-1,0.8-1.8,1.8-1.8h12.2c1,0,1.8,0.8,1.8,1.8v7.9
			C59.5,44.5,56.2,47.8,52.3,47.8z"/>
		<line class="st1" x1="51.5" y1="30.9" x2="51.5" y2="47.4"/>
		<line class="st1" x1="59.5" y1="37.7" x2="67.9" y2="37.7"/>
		<line class="st1" x1="35.2" y1="37.7" x2="43.7" y2="37.7"/>
		<path class="st1" d="M38.3,28.2c0.1,5.9,0.1,5.9,5.4,5.9"/>
		<path class="st1" d="M38.3,46.8c0.1-5.9,0.1-5.9,5.4-5.9"/>
		<path class="st1" d="M65.3,28.2c-0.1,5.9-0.1,5.9-5.4,5.9"/>
		<path class="st1" d="M65.3,46.8c-0.1-5.9-0.1-5.9-5.4-5.9"/>
		<path class="st1" d="M44.7,30.9c0-3.6,3.1-6.5,6.8-6.5c3.8,0,6.8,2.9,6.8,6.5"/>
	</g>
	<g>
		<line class="st2" x1="54.9" y1="66.9" x2="83.1" y2="44.2"/>
		<line class="st2" x1="19.9" y1="44.2" x2="48.2" y2="66.9"/>
		<path class="st2" d="M55.8,69.6c0,2.4-1.9,4.3-4.3,4.3c-2.4,0-4.3-1.9-4.3-4.3c0-2.4,1.9-4.3,4.3-4.3
			C53.9,65.3,55.8,67.2,55.8,69.6z"/>
	</g>
	<path class="st2" d="M75.2,37.1l6.5,5.2c1.2,1,1.9,2.4,1.9,3.9v36.7c0,3.5-2.8,6.4-6.4,6.4H25.8c-3.5,0-6.4-2.8-6.4-6.4V46.2
		c0-1.5,0.7-3,1.9-3.9l6.5-5.2"/>
	<line class="st2" x1="26.3" y1="83.1" x2="42.7" y2="83.1"/>
	<line class="st2" x1="26.3" y1="77.7" x2="34.9" y2="77.7"/>
	<polyline class="st2" points="27.9,50.4 27.9,13.7 69,13.7 75.2,19.9 75.2,50.5 	"/>
</g>
<g>
	<path class="st3" d="M102.8,6.2v96.6H6.2V6.2H102.8 M107.8,1.2H1.2v106.6h106.6V1.2L107.8,1.2z"/>
</g>
</svg>
