<svg xmlns="http://www.w3.org/2000/svg" viewBox="0 0 830.11977 1169.55637"><defs><style>.cls-1{fill:#1d1d1b;}</style></defs><title>logo_laliga_black</title><g id="Capa_2" data-name="Capa 2"><g id="Capa_1-2" data-name="Capa 1"><path class="cls-1" d="M116.68624,180.73151a4.73275,4.73275,0,0,0,2.01108,6.39852l145.78113,84.73478.33292.18084a4.70158,4.70158,0,0,0,4.96523-.30937,4.81389,4.81389,0,0,0,1.17928-1.2085,4.63671,4.63671,0,0,0,.38822-.70633,191.11168,191.11168,0,0,1,133.343-94.21576,3.012,3.012,0,0,0,.56644-.09349,4.90732,4.90732,0,0,0,1.66374-.73562,4.73715,4.73715,0,0,0,1.93546-4.6179l-.06157-.327L377.94858,4.07549l-.06434-.28762a4.3754,4.3754,0,0,0-.84054-1.87531A4.73289,4.73289,0,0,0,372.69991.02971C372.557.05,372.43716.08352,372.3.10982l.009-.00568a370.42859,370.42859,0,0,0-255.614,180.607"/><path class="cls-1" d="M33.44034,500.96172a4.70645,4.70645,0,0,0,6.24368,2.43464l157.34359-60.632.34733-.14025a4.71682,4.71682,0,0,0,2.87255-4.066,4.62538,4.62538,0,0,0-.21013-1.6757,3.87449,3.87449,0,0,0-.30669-.74429,191.11035,191.11035,0,0,1,10.00938-162.96853,2.97687,2.97687,0,0,0,.28038-.49619,5.00262,5.00262,0,0,0,.47288-1.75432,4.76065,4.76065,0,0,0-2.39369-4.40214l-.29473-.15179-148.563-79.72531-.2597-.12853a4.4143,4.4143,0,0,0-1.99674-.51951,4.7294,4.7294,0,0,0-4.18,2.20956c-.07892.12554-.13153.24242-.19848.359l.00568-.00574a370.40531,370.40531,0,0,0-19.1839,312.3898"/><path class="cls-1" d="M233.40794,764.13613a4.74211,4.74211,0,0,0,5.7885-3.38907l50.167-160.98075.10222-.362a4.6859,4.6859,0,0,0-1.401-4.76974,4.539,4.539,0,0,0-1.442-.8785,4.85384,4.85384,0,0,0-.7709-.22777A191.0679,191.0679,0,0,1,164.3254,484.48955a2.99653,2.99653,0,0,0-.22173-.52548,4.86519,4.86519,0,0,0-1.086-1.45361,4.71066,4.71066,0,0,0-4.92727-.86416l-.30968.13152L3.04693,548.73539l-.26843.11657a4.50426,4.50426,0,0,0-1.65238,1.24348,4.75832,4.75832,0,0,0-.85818,4.65317c.05266.13421.10821.2481.1635.37364l-.00568-.01166A370.39381,370.39381,0,0,0,233.38462,764.12716"/><path class="cls-1" d="M562.18823,771.97361a4.737,4.737,0,0,0,1.86821-4.46007,4.68816,4.68816,0,0,0-.8815-2.1719L469.19839,625.34329l-.22478-.30364a4.69172,4.69172,0,0,0-6.17942-1.33106,3.82441,3.82441,0,0,0-.654.46122,191.12856,191.12856,0,0,1-161.14433,26.34166,2.67824,2.67824,0,0,0-.55149-.16949,5.07128,5.07128,0,0,0-1.80693-.067,4.74707,4.74707,0,0,0-3.76264,3.30716l-.09064.324L249.94735,816.43982l-.06994.28337a4.59479,4.59479,0,0,0-.07025,2.055,4.76922,4.76922,0,0,0,3.09441,3.59019,3.47038,3.47038,0,0,0,.39689.10825h-.01727a370.42019,370.42019,0,0,0,308.88074-50.49108"/><path class="cls-1" d="M776.24335,520.85224a4.73633,4.73633,0,0,0-4.59458-4.88363L603.54545,502.85324l-.37364-.01166a4.68569,4.68569,0,0,0-4.34349,2.4286,4.79861,4.79861,0,0,0-.58079,2.39973,191.036,191.036,0,0,1-79.279,142.73066,2.37047,2.37047,0,0,0-.46989.33867,4.76079,4.76079,0,0,0-1.17652,1.37763,4.70594,4.70594,0,0,0,.26006,4.99159l.1925.2744L617.4667,793.356l.17785.22752a4.46272,4.46272,0,0,0,1.57646,1.33405,4.7657,4.7657,0,0,0,4.73478-.19554,3.95068,3.95068,0,0,0,.324-.24237l-.009.009A370.42647,370.42647,0,0,0,776.24335,520.88154"/><path class="cls-1" d="M712.68942,196.4537a4.779,4.779,0,0,0-4.77273-.85818,4.82723,4.82723,0,0,0-1.9235,1.3484L589.96885,319.29952l-.25378.28031a4.70171,4.70171,0,0,0-.85249,4.904,4.79346,4.79346,0,0,0,.90779,1.41864,4.236,4.236,0,0,0,.58976.53715,191.01255,191.01255,0,0,1,60.988,151.4586,2.58874,2.58874,0,0,0-.038.57809,5.00044,5.00044,0,0,0,.33,1.7863,4.73908,4.73908,0,0,0,4.04586,2.9425l.33261.01166,168.41269,8.1618h.292a4.42081,4.42081,0,0,0,2.02-.39128,4.75574,4.75574,0,0,0,2.83728-3.789c.00867-.13989.00867-.2744.01733-.41429v.01165a370.54446,370.54446,0,0,0-116.891-290.3303"/><path class="cls-1" d="M417.90472,45.662a4.72173,4.72173,0,0,0-3.73939,5.56067L438.808,218.03727l.07024.36766a4.69,4.69,0,0,0,3.33354,3.6838,4.47929,4.47929,0,0,0,1.67563.16948,5.0163,5.0163,0,0,0,.7969-.12853,191.04706,191.04706,0,0,1,156.80047,45.50815,2.90713,2.90713,0,0,0,.43193.37962,4.88979,4.88979,0,0,0,1.60546.84359,4.71443,4.71443,0,0,0,4.81667-1.372l.2188-.24809L718.92174,139.78858l.18383-.23494a4.5052,4.5052,0,0,0,.94875-1.82875,4.74485,4.74485,0,0,0-1.24078-4.56827c-.10485-.10074-.20715-.17517-.31237-.26873l.006.00748A370.375,370.375,0,0,0,417.92811,45.656"/><path class="cls-1" d="M407.56833,284.08973c-76.92629,0-139.49941,62.5791-139.49941,139.50211,0,76.90866,62.57312,139.49075,139.49941,139.49075,76.91434,0,139.49045-62.58209,139.49045-139.49075,0-76.923-62.57611-139.50211-139.49045-139.50211M508.89784,502.21715c2.13363-5.66624,2.79632-12.28052,3.497-17.41224a85.96373,85.96373,0,0,1-9.07259,7.58938,79.57484,79.57484,0,0,1-29.91455,13.62054l-26.98073-29.41268-.37095.27435,19.55216,34.61142a79.37623,79.37623,0,0,1-22.398,24.59032,86.59194,86.59194,0,0,1-10.01543,6.26431c5.07045.91641,11.51859,2.32345,17.54944,2.06369a128.40611,128.40611,0,0,1-86.37216-.00867c6.03946.2744,12.51391-1.13861,17.599-2.055a86.74875,86.74875,0,0,1-10.00938-6.26431A79.46674,79.46674,0,0,1,349.5605,511.4939l19.56083-34.632-.368-.26843L341.749,506.00885a79.47619,79.47619,0,0,1-29.91156-13.61456,84.80243,84.80243,0,0,1-9.049-7.58938c.68869,5.16072,1.35437,11.80464,3.5,17.49384a127.73671,127.73671,0,0,1-27.01331-78.70691c0-1.407.0556-2.79932.10223-4.19165,1.54126,6.02787,5.03853,11.98848,7.575,16.69694a83.07709,83.07709,0,0,1,2.87524-11.466A79.34591,79.34591,0,0,1,306.402,395.59242l38.59018,7.82283.14288-.43761-36.07065-16.46379a79.60109,79.60109,0,0,1,3.72475-32.55634,84.49194,84.49194,0,0,1,4.40776-10.96088c-4.94491,2.37313-11.51859,5.225-16.3526,9.3877a128.48145,128.48145,0,0,1,72.0893-52.32132c-5.5813,3.28385-10.43288,8.76889-14.28323,12.81766a86.60213,86.60213,0,0,1,11.77864-.80288,79.4611,79.4611,0,0,1,32.48042,6.68458l4.48069,39.01345h.45525l4.47209-39.04244a79.42745,79.42745,0,0,1,32.41907-6.65559,87.03455,87.03455,0,0,1,11.799.80288c-3.86769-4.0401-8.70171-9.50751-14.26267-12.79435a128.46362,128.46362,0,0,1,71.96674,52.22777c-4.82534-4.11573-11.3494-6.95306-16.265-9.31746a88.85045,88.85045,0,0,1,4.40776,10.96088,79.46941,79.46941,0,0,1,3.7101,32.60327l-36.01236,16.45184.14587.4379,38.57255-7.81745A79.18729,79.18729,0,0,1,525.338,424.63116a84.26393,84.26393,0,0,1,2.87524,11.466c2.52192-4.67624,5.98392-10.58448,7.54275-16.57738.035,1.35169.10522,2.70606.10522,4.07209a127.66258,127.66258,0,0,1-26.96339,78.62531"/><polygon class="cls-1" points="351.222 405.216 372.758 471.517 442.466 471.517 464 405.216 407.606 364.247 351.222 405.216"/><polygon class="cls-1" points="2.767 929.671 2.767 1116.797 110.188 1116.797 110.188 1074.293 51.375 1074.293 51.375 929.671 2.767 929.671"/><path class="cls-1" d="M199.62845,1005.88451c-21.63319,0-35.49286,16.12482-35.49286,35.91013,0,20.775,13.13,37.8719,34.03924,37.8719,20.17659,0,36.94378-14.89869,36.94378-36.64576,0-21.98351-15.5557-37.13627-35.49016-37.13627m-81.41836,36.64874c0-41.77479,30.872-78.666,72.42767-78.666,18.21213,0,29.64613,6.11246,43.01259,18.32871V966.81546H278.379V1116.7971H232.9234v-14.65653s-16.28535,18.33468-44.71132,18.33468c-41.56765,0-70.002-29.83-70.002-77.942"/><polygon class="cls-1" points="412.554 1116.797 305.121 1116.797 305.121 929.671 353.732 929.671 353.732 1074.293 412.554 1074.293 412.554 1116.797"/><path class="cls-1" d="M477.92932,1116.7971H432.71613V966.81546h45.21319ZM428.352,928.69845a27.3425,27.3425,0,1,1,54.68273-.49619A27.81218,27.81218,0,0,1,455.082,956.05013c-14.83173,0-26.72994-11.96815-26.72994-27.35168"/><path class="cls-1" d="M572.95386,1002.70258c-21.1429,0-31.60483,17.351-31.60483,35.91911,0,19.29808,11.43393,35.18348,31.37108,35.18348,22.60525,0,34.73691-18.08061,34.73691-34.92941,0-20.04237-11.17985-36.17318-34.50316-36.17318m-75.58926,36.17318c0-40.5633,25.76655-75.00847,65.15363-75.00847,18.95344,0,31.8264,6.11246,44.69966,19.78262V966.81546h43.28072v132.15783c0,46.40734-34.77457,70.58308-76.57268,70.58308-36.70435,0-68.78512-18.55349-73.62481-52.28336h50.79477c6.29062,10.26913,12.60454,12.21057,23.80778,12.21057,15.79214,0,30.36411-7.31529,30.36411-23.67386a87.49445,87.49445,0,0,0-.23345-11.23821c-8.75716,7.81715-25.03391,17.342-42.77615,17.342-38.63383,0-64.89358-32.247-64.89358-73.03775"/><path class="cls-1" d="M751.36121,1005.88451c-21.64185,0-35.48718,16.12482-35.48718,35.91013,0,20.775,13.11538,37.8719,34.0249,37.8719,20.16769,0,36.94086-14.89869,36.94086-36.64576,0-21.98351-15.53836-37.13627-35.47858-37.13627m-81.43031,36.64874c0-41.77479,30.86031-78.666,72.425-78.666,18.22685,0,29.66085,6.11246,43.02432,18.32871V966.81546h44.726V1116.7971h-45.4559v-14.65653s-16.28236,18.33468-44.72006,18.33468c-41.55569,0-69.9993-29.83-69.9993-77.942"/></g></g></svg>